<svg id="visual" viewBox="0 0 900 600" width="900" height="600" xmlns="http://www.w3.org/2000/svg" xmlns:xlink="http://www.w3.org/1999/xlink" version="1.1"><g transform="translate(424.48411476140654 326.693846339189)"><path d="M97.1 -173.7C119.2 -155.4 125.8 -116 126.4 -83.5C127 -51 121.5 -25.5 130 4.9C138.5 35.3 161.1 70.7 154.6 93C148.2 115.4 112.9 124.8 82.3 129.8C51.7 134.8 25.8 135.4 5.9 125.2C-14.1 115 -28.1 94.1 -43.9 80.5C-59.6 66.9 -77 60.7 -88.8 48.5C-100.6 36.3 -106.8 18.2 -104.1 1.6C-101.3 -15 -89.6 -30 -82.7 -50.6C-75.8 -71.3 -73.6 -97.6 -60.7 -121.1C-47.7 -144.6 -23.8 -165.3 6.8 -177.1C37.5 -189 75 -191.9 97.1 -173.7" fill="#9656a1"></path></g></svg>