<svg id="visual" viewBox="0 0 900 600" width="900" height="600" xmlns="http://www.w3.org/2000/svg" xmlns:xlink="http://www.w3.org/1999/xlink" version="1.1"><g transform="translate(466.58683871236406 308.6484878425176)"><path d="M87.2 -166.8C99.4 -144 86.2 -93.1 91.5 -60.6C96.7 -28.1 120.4 -14.1 131.7 6.6C143.1 27.2 142.1 54.3 136 85.4C129.9 116.4 118.7 151.3 95.2 162.7C71.7 174.1 35.8 162.1 8 148.2C-19.8 134.4 -39.7 118.7 -69 110.6C-98.3 102.5 -137 102 -157.1 84.8C-177.2 67.7 -178.6 33.8 -163.4 8.8C-148.3 -16.3 -116.6 -32.7 -104.7 -64.1C-92.9 -95.6 -101 -142.2 -86.8 -163.9C-72.7 -185.5 -36.3 -182.3 0.6 -183.3C37.5 -184.3 75 -189.6 87.2 -166.8" fill="#9656a1"></path></g></svg>