<svg id="visual" viewBox="0 0 900 600" width="900" height="600" xmlns="http://www.w3.org/2000/svg" xmlns:xlink="http://www.w3.org/1999/xlink" version="1.1"><g transform="translate(464.10000916526366 316.545713093495)"><path d="M65.7 -134.3C80.4 -105.3 84.4 -78.2 103 -56.1C121.6 -34 154.8 -17 157.2 1.4C159.7 19.8 131.4 39.7 115.7 66.8C100 93.9 97 128.4 79.8 137.3C62.7 146.2 31.3 129.6 -1.7 132.5C-34.7 135.4 -69.3 157.8 -92.3 152.2C-115.2 146.6 -126.5 113 -145.8 83C-165.1 53 -192.6 26.5 -183.9 5C-175.2 -16.5 -130.5 -33 -100.9 -45.2C-71.2 -57.4 -56.7 -65.2 -42.4 -94.5C-28.1 -123.7 -14.1 -174.4 5.7 -184.3C25.5 -194.2 51 -163.3 65.7 -134.3" fill="#9656a1"></path></g></svg>