<svg id="visual" viewBox="0 0 900 600" width="900" height="600" xmlns="http://www.w3.org/2000/svg" xmlns:xlink="http://www.w3.org/1999/xlink" version="1.1"><g transform="translate(472.015171277023 281.02553932601654)"><path d="M58.7 -109C73.7 -93 81.9 -72.5 103.3 -53.6C124.7 -34.7 159.4 -17.3 156.5 -1.6C153.7 14.1 113.4 28.1 93.5 49.6C73.6 71.1 74 100.1 61.8 124.2C49.7 148.4 24.8 167.7 -6.3 178.6C-37.5 189.6 -75 192.2 -105.6 178.7C-136.2 165.2 -159.9 135.6 -178.1 103.1C-196.4 70.7 -209.2 35.3 -193.9 8.8C-178.6 -17.7 -135.2 -35.3 -113.4 -61.6C-91.5 -87.9 -91.3 -122.7 -76 -138.6C-60.7 -154.4 -30.3 -151.2 -4.3 -143.8C21.8 -136.5 43.7 -125 58.7 -109" fill="#9656a1"></path></g></svg>