<svg id="visual" viewBox="0 0 900 600" width="900" height="600" xmlns="http://www.w3.org/2000/svg" xmlns:xlink="http://www.w3.org/1999/xlink" version="1.1"><g transform="translate(452.6525494990009 289.5610375548228)"><path d="M69.8 -128.4C89.3 -109.7 103.1 -88.6 115.9 -66.8C128.6 -45 140.3 -22.5 153.3 7.5C166.3 37.5 180.6 75 162.3 87.2C144 99.4 93.1 86.2 60.6 99.6C28.1 113.1 14.1 153 -9.5 169.4C-33 185.8 -66 178.6 -81 155.1C-96 131.6 -93 91.8 -105.5 63.2C-118 34.7 -146 17.3 -162.3 -9.4C-178.6 -36.2 -183.3 -72.3 -162 -85.6C-140.6 -98.9 -93.3 -89.3 -62 -101.2C-30.7 -113.1 -15.3 -146.6 4.9 -155.1C25.2 -163.6 50.3 -147.2 69.8 -128.4" fill="#9656a1"></path></g></svg>