<svg id="visual" viewBox="0 0 900 600" width="900" height="600" xmlns="http://www.w3.org/2000/svg" xmlns:xlink="http://www.w3.org/1999/xlink" version="1.1"><g transform="translate(436.0951183975455 285.38624635268377)"><path d="M57 -79.3C86 -82 130 -91.2 160.5 -79.1C191 -67 208 -33.5 203.1 -2.8C198.2 27.8 171.4 55.7 142.6 70.7C113.8 85.7 82.9 87.9 58.8 109C34.7 130 17.3 170 -3.3 175.8C-24 181.6 -48 153.1 -78.2 135.6C-108.3 118 -144.7 111.2 -161.7 90.5C-178.7 69.7 -176.3 34.8 -175.6 0.4C-174.9 -34 -175.8 -68 -163.5 -97C-151.3 -126 -125.9 -150 -96.4 -147.1C-67 -144.2 -33.5 -114.3 -9.8 -97.4C14 -80.5 28 -76.6 57 -79.3" fill="#9656a1"></path></g></svg>