<svg id="visual" viewBox="0 0 900 600" width="900" height="600" xmlns="http://www.w3.org/2000/svg" xmlns:xlink="http://www.w3.org/1999/xlink" version="1.1"><g transform="translate(436.77102309288364 333.5595765069617)"><path d="M74.4 -120.6C100.8 -113.6 129.7 -102.6 139.5 -81.8C149.3 -61 140.2 -30.5 143.2 1.7C146.2 34 161.4 68 149.4 84.9C137.3 101.8 97.9 101.5 68.4 99.7C39 97.9 19.5 94.4 0.6 93.4C-18.3 92.4 -36.7 93.8 -57.7 90.8C-78.8 87.8 -102.6 80.4 -107.5 64.5C-112.4 48.7 -98.4 24.3 -100.7 -1.3C-103 -27 -121.7 -54 -126.3 -86.5C-131 -119 -121.8 -156.9 -98.4 -165.6C-75 -174.2 -37.5 -153.6 -6.8 -141.9C24 -130.2 48 -127.5 74.4 -120.6" fill="#9656a1"></path></g></svg>