<svg id="visual" viewBox="0 0 900 600" width="900" height="600" xmlns="http://www.w3.org/2000/svg" xmlns:xlink="http://www.w3.org/1999/xlink" version="1.1"><g transform="translate(449.10350529942 278.97416086304315)"><path d="M63.9 -123.3C77.2 -103.1 78.4 -74.5 87.4 -52.6C96.4 -30.7 113.2 -15.3 132.4 11.1C151.6 37.5 173.2 75 166.4 100.7C159.6 126.4 124.3 140.3 91.8 156.4C59.3 172.4 29.7 190.7 -0.2 191C-30 191.3 -60 173.6 -92.3 157.4C-124.7 141.3 -159.3 126.6 -165 100.6C-170.7 74.7 -147.3 37.3 -141.1 3.6C-134.9 -30.2 -145.8 -60.3 -132.2 -72.5C-118.6 -84.7 -80.4 -78.9 -54.3 -91.6C-28.1 -104.4 -14.1 -135.7 5.6 -145.5C25.3 -155.2 50.7 -143.4 63.9 -123.3" fill="#9656a1"></path></g></svg>