<svg id="visual" viewBox="0 0 900 600" width="900" height="600" xmlns="http://www.w3.org/2000/svg" xmlns:xlink="http://www.w3.org/1999/xlink" version="1.1"><g transform="translate(444.34697542410584 302.32019970860347)"><path d="M91.3 -153.4C107.6 -148.7 102.7 -102.6 118.3 -70.1C133.9 -37.7 170 -18.8 165.9 -2.3C161.9 14.2 117.7 28.3 98.2 53.9C78.6 79.4 83.5 116.4 71.3 134.1C59 151.9 29.5 150.4 1.9 147.1C-25.7 143.8 -51.3 138.6 -67.4 123C-83.4 107.4 -89.8 81.5 -105.3 59.2C-120.8 37 -145.4 18.5 -152.6 -4.2C-159.8 -26.8 -149.6 -53.7 -130.5 -69.5C-111.3 -85.4 -83.1 -90.3 -59.9 -91C-36.7 -91.6 -18.3 -88 9.6 -104.6C37.5 -121.2 75 -158 91.3 -153.4" fill="#9656a1"></path></g></svg>