<svg id="visual" viewBox="0 0 900 600" width="900" height="600" xmlns="http://www.w3.org/2000/svg" xmlns:xlink="http://www.w3.org/1999/xlink" version="1.1"><g transform="translate(434.5496677327618 297.1107259753939)"><path d="M74.9 -114.8C106.6 -111.6 148.1 -110.5 174.8 -91.8C201.4 -73 213.2 -36.5 199.1 -8.2C184.9 20.2 144.9 40.3 121.6 65C98.4 89.7 91.9 118.9 74.5 131.8C57 144.7 28.5 141.4 7.2 128.9C-14.1 116.4 -28.1 94.7 -43.7 80.7C-59.3 66.7 -76.4 60.4 -98.2 48.2C-120 36 -146.5 18 -161.4 -8.6C-176.2 -35.2 -179.5 -70.3 -164.2 -93.7C-148.8 -117.1 -114.9 -128.7 -84.5 -132.6C-54 -136.5 -27 -132.8 -2.7 -128.1C21.7 -123.5 43.3 -118.1 74.9 -114.8" fill="#9656a1"></path></g></svg>